<?xml version="1.0" encoding="utf-8"?>
<!-- Generator: Adobe Illustrator 17.0.0, SVG Export Plug-In . SVG Version: 6.00 Build 0)  -->
<!DOCTYPE svg PUBLIC "-//W3C//DTD SVG 1.1//EN" "http://www.w3.org/Graphics/SVG/1.1/DTD/svg11.dtd">
<svg version="1.1" id="Layer_1" xmlns="http://www.w3.org/2000/svg" xmlns:xlink="http://www.w3.org/1999/xlink" x="0px" y="0px"
	 width="1000px" height="1000px" viewBox="0 0 1000 1000" enable-background="new 0 0 1000 1000" xml:space="preserve">
<g>
	<g>
		<circle fill="#50AD4E" cx="500.003" cy="500" r="306.452"/>
		<path fill="#333333" d="M500.003,0c-131.083,0-256.87,51.854-350.017,143.112L128.76,29.288l-31.711,5.935l29.178,156.321
			l162.322,18.033l3.565-32.048l-117.742-13.082C261.308,80.141,378.211,32.255,500,32.255
			c257.902,0,467.739,209.823,467.739,467.742c0,140.758-62.579,267.096-161.29,352.918v-30.338
			c-13.757,0-26.113-7.646-32.258-19.936l-6.63-13.258c22.145-4.435,38.888-24.017,38.888-47.453
			c0-26.677-21.708-48.389-48.385-48.389h-64.516v161.29h32.258v-76.838l19.534,39.064c11.324,22.679,33.837,36.886,59.066,37.629
			C722.52,925.058,616.18,967.735,500.003,967.735c-257.902,0-467.739-209.823-467.739-467.742
			c0-47.645,7.243-94.854,21.547-140.321l-30.775-9.679C7.745,398.595,0.003,449.062,0.003,500c0,275.691,224.288,500,499.997,500
			s499.997-224.305,499.997-500S775.708,0,500.003,0z M725.806,758.064v-32.258h32.258c8.901,0,16.127,7.243,16.127,16.131
			s-7.226,16.131-16.127,16.131h-32.258V758.064z"/>
		<path fill="#333333" d="M86.376,281.726l-28.514-15.081c-6.29,11.871-11.582,22.789-16.193,33.321L71.215,312.9
			C75.537,303.097,80.471,292.902,86.376,281.726z"/>
		<path fill="#333333" d="M378.745,544.256l-195.74,117.45c-23.339,14.001-37.839,39.597-37.839,66.821
			c0,42.969,34.952,77.918,77.918,77.918h276.919v-32.255H223.084c-25.177,0-45.66-20.483-45.66-45.66
			c0-15.952,8.485-30.95,22.176-39.147l195.757-117.467C459.904,533.19,500,462.371,500,387.095
			c0-97.823-79.597-177.42-177.417-177.42s-177.417,79.597-177.417,177.421v32.258h32.258v-32.258
			c0-80.031,65.111-145.163,145.159-145.163s145.159,65.128,145.159,145.163C467.745,451.112,433.647,511.338,378.745,544.256z"/>
		<path fill="#333333" d="M723.776,217.517l-28.194-15.676L539.116,483.467c-4.483,8.096-6.854,17.259-6.854,26.484
			c0,30.08,24.485,54.565,54.565,54.565H741.94v96.774h32.254v-96.774h145.159v-32.258H774.194V209.678h-32.258v322.579H586.823
			c-12.308,0-22.307-9.999-22.307-22.307c0-3.775,0.984-7.515,2.808-10.821L723.776,217.517z"/>
		<polygon fill="#333333" points="532.258,854.838 564.516,854.838 564.516,790.322 629.032,790.322 629.032,854.838 
			661.29,854.838 661.29,693.548 629.032,693.548 629.032,758.064 564.516,758.064 564.516,693.548 532.258,693.548 		"/>
	</g>
</g>
</svg>
