<?xml version="1.0" encoding="utf-8"?>
<!-- Generator: Adobe Illustrator 17.0.0, SVG Export Plug-In . SVG Version: 6.00 Build 0)  -->
<!DOCTYPE svg PUBLIC "-//W3C//DTD SVG 1.1//EN" "http://www.w3.org/Graphics/SVG/1.1/DTD/svg11.dtd">
<svg version="1.1" id="Layer_1" xmlns="http://www.w3.org/2000/svg" xmlns:xlink="http://www.w3.org/1999/xlink" x="0px" y="0px"
	 width="1000px" height="1000px" viewBox="0 0 1000 1000" enable-background="new 0 0 1000 1000" xml:space="preserve">
<g>
	<g>
		<path fill="#50AD4E" d="M290.322,193.547c-89.079,0-161.291,72.208-161.291,161.291s72.208,161.291,161.291,161.291
			s161.291-72.208,161.291-161.291H290.322V193.547z"/>
		<path fill="#50AD4E" d="M338.709,145.163v161.291H500C500,217.371,427.789,145.163,338.709,145.163z"/>
		<path fill="#333333" d="M1000,96.775V0H0v96.775h48.388v580.644H0v96.775h280.354L179.128,976.662l28.855,14.436l108.436-216.904
			h167.451v209.678h32.259V774.194h167.451l108.452,216.888l8.226-4.114c10.758,8.079,23.984,13.033,38.453,13.033
			c19.356,0,36.547-8.742,48.387-22.291c11.837,13.549,29.031,22.291,48.388,22.291c35.581,0,64.516-28.935,64.516-64.516V471.662
			c0-49.87-29.984-92.807-73.018-109.388c33.499-15.242,56.886-48.951,56.886-88.08c0-28.565-12.517-54.194-32.26-71.935V96.775
			H1000z M32.259,64.516V32.259h935.484v32.259h-16.128H48.388L32.259,64.516L32.259,64.516z M32.259,709.678h16.128h725.806v32.259
			H32.259V709.678z M774.194,774.194v109.095l-54.548-109.095L774.194,774.194L774.194,774.194z M967.741,471.662v463.823
			c0,17.79-14.469,32.26-32.26,32.26c-17.791,0-32.26-14.469-32.26-32.26V709.678h-32.26v225.806c0,17.79-14.469,32.26-32.259,32.26
			c-17.791,0-32.259-14.469-32.259-32.26V774.194v-96.775V480.547l-90.985,40.435c-10.967,4.921-24.034,2.452-32.549-6.047
			l-82.806-82.806c-7.05-7.063-7.05-18.517,0-25.58c7.063-7.063,18.517-7.063,25.58,0l81.823,81.823l10.951-7.113
			c50.033-32.516,125.87-81.756,129.354-83.919c14.789-8.306,31.676-11.66,48.807-9.695
			C936.501,392.194,967.741,429.098,967.741,471.662z M887.097,338.709c-35.581,0-64.516-28.935-64.516-64.516
			s28.935-64.516,64.516-64.516c35.581,0,64.516,28.935,64.516,64.516S922.678,338.709,887.097,338.709z M919.353,183.066
			c-10.111-3.581-20.935-5.644-32.26-5.644c-53.372,0-96.775,43.404-96.775,96.775c0,39.096,23.354,72.775,56.79,88.033
			c-5.161,1.969-10.225,4.258-15.095,7c-1.742,0.983-42.161,27.179-120.176,77.888l-63.34-63.34
			c-14.839-14.839-36.694-18.42-54.967-10.821L513.529,249.33l-27.082,17.531l82.759,127.902c-4.224,7.469-6.66,15.822-6.66,24.614
			c0,13.436,5.24,26.096,14.759,35.598l82.806,82.806c17.87,17.887,45.372,23.001,68.467,12.727l45.612-20.306v147.225H80.644
			V96.775h838.709V183.066z"/>
		<rect x="370.969" y="548.388" fill="#333333" width="258.066" height="32.259"/>
		<rect x="419.353" y="612.903" fill="#333333" width="209.678" height="32.259"/>
		<rect x="516.128" y="145.163" fill="#333333" width="32.259" height="32.259"/>
		<rect x="580.644" y="145.163" fill="#333333" width="32.259" height="32.259"/>
		<rect x="645.159" y="145.163" fill="#333333" width="32.259" height="32.259"/>
		<rect x="709.678" y="145.163" fill="#333333" width="32.259" height="32.259"/>
	</g>
</g>
</svg>
