<?xml version="1.0" encoding="utf-8"?>
<!-- Generator: Adobe Illustrator 17.0.0, SVG Export Plug-In . SVG Version: 6.00 Build 0)  -->
<!DOCTYPE svg PUBLIC "-//W3C//DTD SVG 1.1//EN" "http://www.w3.org/Graphics/SVG/1.1/DTD/svg11.dtd">
<svg version="1.1" id="Layer_1" xmlns="http://www.w3.org/2000/svg" xmlns:xlink="http://www.w3.org/1999/xlink" x="0px" y="0px"
	 width="1000px" height="1000px" viewBox="0 0 1000 1000" enable-background="new 0 0 1000 1000" xml:space="preserve">
<g>
	<g>
		<rect x="64.516" y="161.289" fill="#50AD4E" width="870.962" height="129.031"/>
		<path fill="#333333" d="M951.608,96.774H48.388C21.708,96.774,0,118.485,0,145.162v596.772c0,26.677,21.708,48.388,48.388,48.388
			h274.19v80.646h-80.643v32.258h338.709h177.42h193.547c26.677,0,48.388-21.708,48.388-48.388V370.967v-32.258V145.162
			C999.993,118.485,978.285,96.774,951.608,96.774z M48.388,129.031h903.22c8.901,0,16.131,7.243,16.131,16.131V293.29
			c-5.065-1.806-10.453-2.966-16.131-2.966h-16.131H580.641H64.516v322.578h467.74v32.258H32.258V145.162
			C32.258,136.274,39.484,129.031,48.388,129.031z M532.256,354.836h-32.258v32.258h32.258v48.389h-32.258v32.258h32.258v48.385
			h-32.258v32.258h32.258v32.258H96.774V322.578h438.449c-1.806,5.065-2.969,10.45-2.969,16.131v16.127H532.256z M32.258,741.93
			v-64.516h499.998v80.646H48.388C39.484,758.061,32.258,750.818,32.258,741.93z M354.836,790.319h177.42v64.516
			c0,5.677,1.16,11.066,2.969,16.131H354.84v-80.646H354.836z M967.735,854.835c0,8.888-7.226,16.131-16.131,16.131H774.188h-16.131
			H580.641c-8.901,0-16.131-7.243-16.131-16.131v-64.516v-32.258v-80.646v-32.258v-32.258v-32.258v-32.258v-32.258v-48.389v-32.258
			v-48.385v-32.258v-16.131c0-8.888,7.226-16.131,16.131-16.131H903.22v32.258H596.768v483.871h177.42h161.289V395.789v-40.953
			v-32.258h16.131c8.901,0,16.131,7.243,16.131,16.131v32.258L967.735,854.835L967.735,854.835z M903.22,395.789v410.657H629.026
			V387.094H903.22V395.789z"/>
		<circle fill="#333333" cx="145.162" cy="225.805" r="16.131"/>
		<circle fill="#333333" cx="193.547" cy="225.805" r="16.131"/>
		<circle fill="#333333" cx="241.936" cy="225.805" r="16.131"/>
		<path fill="#333333" d="M129.031,548.383H467.74V354.836H129.031V548.383z M161.289,387.094h274.193v129.031H161.289V387.094z"/>
		<circle fill="#333333" cx="774.188" cy="854.835" r="16.131"/>
		<path fill="#333333" d="M870.962,419.352H661.284v161.289h209.678V419.352z M838.704,548.383H693.542V451.61h145.162V548.383z"/>
		<rect x="661.287" y="612.899" fill="#333333" width="209.678" height="32.258"/>
		<rect x="661.287" y="677.415" fill="#333333" width="209.678" height="32.258"/>
		<rect x="661.287" y="741.93" fill="#333333" width="209.678" height="32.258"/>
	</g>
</g>
</svg>
