<?xml version="1.0" encoding="utf-8"?>
<!-- Generator: Adobe Illustrator 17.0.0, SVG Export Plug-In . SVG Version: 6.00 Build 0)  -->
<!DOCTYPE svg PUBLIC "-//W3C//DTD SVG 1.1//EN" "http://www.w3.org/Graphics/SVG/1.1/DTD/svg11.dtd">
<svg version="1.1" id="Layer_1" xmlns="http://www.w3.org/2000/svg" xmlns:xlink="http://www.w3.org/1999/xlink" x="0px" y="0px"
	 width="1000px" height="1000px" viewBox="0 0 1000 1000" enable-background="new 0 0 1000 1000" xml:space="preserve">
<g>
	<g>
		<circle fill="#50AD4E" cx="459.68" cy="266.129" r="153.224"/>
		<path fill="#333333" d="M951.611,0H48.389C21.715,0,0.003,21.708,0.003,48.389v467.739c0,26.677,21.708,48.389,48.385,48.389
			h172.676c-2.095,1.679-4.308,3.21-6.242,5.13c-13.726,13.708-21.275,31.935-21.275,51.324s7.549,37.612,21.258,51.324
			l172.29,172.273V1000h32.258V831.206L237.611,649.481c-7.611-7.628-11.806-17.741-11.806-28.518
			c0-10.777,4.194-20.886,11.806-28.518c15.243-15.243,41.775-15.243,57.015,0l124.724,124.71V282.256
			c0-22.242,18.082-40.323,40.323-40.323c22.242,0,40.323,18.082,40.323,40.323v193.548v40.323h32.258v-40.323
			c0-22.242,18.082-40.323,40.323-40.323c22.242,0,40.323,18.082,40.323,40.323v16.131v24.193h32.258v-24.193
			c0-22.242,18.082-40.323,40.323-40.323c22.242,0,40.323,18.082,40.323,40.323v32.258v8.065h32.258v-8.065
			c0-22.242,18.082-40.323,40.323-40.323s40.323,18.082,40.323,40.323v24.193v322.58c0,26.677-21.708,48.389-48.385,48.389h-16.131
			V1000h32.258v-50.016c36.759-7.501,64.516-40.065,64.516-79.016V564.516h80.643c26.677,0,48.385-21.708,48.385-48.389V48.389
			C1000,21.708,978.288,0,951.611,0z M32.261,516.127V282.256V48.389c0-8.905,7.226-16.131,16.127-16.131h96.774v249.998v249.998
			h-96.77C39.487,532.258,32.261,525.029,32.261,516.127z M317.453,569.643c-1.937-1.937-4.146-3.451-6.242-5.13h75.888v74.773
			L317.453,569.643z M798.387,451.611c-17.001,0-32.451,6.114-44.838,15.952c-10.065-28.015-36.628-48.21-68.063-48.21
			c-19.534,0-37.209,7.838-50.274,20.435c-12.549-21.743-35.774-36.566-62.63-36.566c-14.919,0-28.772,4.549-40.323,12.291V282.256
			c0-40.017-32.564-72.581-72.581-72.581s-72.578,32.568-72.578,72.581v249.998H177.424V32.258H838.71v431.644
			C827.163,456.16,813.306,451.611,798.387,451.611z M967.742,516.127c0,8.901-7.226,16.131-16.127,16.131h-80.643v-8.065V32.258
			h80.643c8.901,0,16.127,7.226,16.127,16.131V516.127z"/>
		<rect x="903.226" y="322.58" fill="#333333" width="32.258" height="32.258"/>
		<rect x="903.226" y="209.678" fill="#333333" width="32.258" height="96.774"/>
		<path fill="#333333" d="M88.712,338.71c31.129,0,56.451-25.321,56.451-56.451s-25.321-56.451-56.451-56.451
			s-56.451,25.318-56.451,56.447S57.586,338.71,88.712,338.71z M88.712,258.064c13.34,0,24.193,10.856,24.193,24.193
			s-10.856,24.193-24.193,24.193s-24.193-10.856-24.193-24.193S75.375,258.064,88.712,258.064z"/>
	</g>
</g>
</svg>
