<?xml version="1.0" encoding="utf-8"?>
<!-- Generator: Adobe Illustrator 17.0.0, SVG Export Plug-In . SVG Version: 6.00 Build 0)  -->
<!DOCTYPE svg PUBLIC "-//W3C//DTD SVG 1.1//EN" "http://www.w3.org/Graphics/SVG/1.1/DTD/svg11.dtd">
<svg version="1.1" id="Layer_1" xmlns="http://www.w3.org/2000/svg" xmlns:xlink="http://www.w3.org/1999/xlink" x="0px" y="0px"
	 width="300.553px" height="99px" viewBox="0 0 300.553 99" enable-background="new 0 0 300.553 99" xml:space="preserve">
<g>
	<path fill="#50AD4E" d="M109.604-257.418h-2.253v-7.06h-8.238v7.06h-2.254v-15.615h2.254v6.922h8.238v-6.922h2.253V-257.418z"/>
	<path fill="#50AD4E" d="M117.962-268.636c0.812,0,1.545,0.129,2.199,0.395c0.653,0.266,1.208,0.645,1.665,1.139
		c0.456,0.495,0.81,1.091,1.057,1.791c0.246,0.699,0.37,1.484,0.37,2.355s-0.125,1.658-0.37,2.361
		c-0.247,0.705-0.6,1.305-1.057,1.797c-0.457,0.494-1.012,0.871-1.665,1.135c-0.654,0.268-1.386,0.398-2.199,0.398
		c-0.812,0-1.547-0.131-2.204-0.398c-0.657-0.264-1.215-0.641-1.675-1.135c-0.463-0.492-0.815-1.092-1.062-1.797
		c-0.247-0.703-0.37-1.49-0.37-2.361s0.123-1.656,0.37-2.355c0.247-0.7,0.6-1.296,1.062-1.791c0.459-0.494,1.018-0.873,1.675-1.139
		C116.415-268.507,117.15-268.636,117.962-268.636z M117.962-258.877c1.06,0,1.85-0.353,2.373-1.064
		c0.522-0.711,0.784-1.713,0.784-3.004c0-1.285-0.262-2.285-0.784-3.004c-0.523-0.719-1.313-1.079-2.373-1.079
		c-1.075,0-1.873,0.36-2.399,1.079c-0.527,0.72-0.788,1.719-0.788,3.004c0,1.291,0.261,2.293,0.788,3.004
		C116.089-259.23,116.887-258.877,117.962-258.877z M119.268-254.729c0,0.176-0.034,0.338-0.104,0.49
		c-0.069,0.15-0.163,0.285-0.283,0.402c-0.121,0.117-0.258,0.207-0.414,0.279c-0.155,0.066-0.319,0.1-0.494,0.1
		c-0.174,0-0.338-0.033-0.49-0.1c-0.153-0.072-0.286-0.162-0.398-0.279c-0.111-0.117-0.203-0.252-0.271-0.402
		c-0.07-0.152-0.104-0.314-0.104-0.49c0-0.174,0.034-0.342,0.104-0.502c0.068-0.156,0.16-0.297,0.271-0.41
		c0.113-0.117,0.246-0.209,0.398-0.281c0.151-0.068,0.316-0.102,0.49-0.102c0.174,0,0.338,0.033,0.494,0.102
		c0.156,0.072,0.294,0.164,0.414,0.281c0.12,0.113,0.214,0.254,0.283,0.41C119.234-255.07,119.268-254.902,119.268-254.729z"/>
	<path fill="#50AD4E" d="M133.905-266.428c-0.057,0.082-0.117,0.139-0.178,0.184c-0.062,0.044-0.149,0.064-0.257,0.064
		c-0.115,0-0.24-0.042-0.37-0.134c-0.13-0.092-0.29-0.188-0.479-0.294c-0.188-0.106-0.421-0.203-0.697-0.294
		c-0.275-0.092-0.613-0.135-1.012-0.135c-0.53,0-0.999,0.092-1.404,0.282c-0.407,0.189-0.747,0.46-1.018,0.814
		c-0.272,0.356-0.477,0.784-0.615,1.284c-0.137,0.5-0.207,1.068-0.207,1.699c0,0.654,0.075,1.234,0.223,1.742
		c0.149,0.508,0.36,0.936,0.632,1.285c0.271,0.348,0.603,0.613,0.99,0.793c0.388,0.182,0.822,0.271,1.301,0.271
		c0.463,0,0.845-0.057,1.143-0.168c0.297-0.111,0.544-0.234,0.74-0.365c0.195-0.129,0.361-0.252,0.496-0.363
		c0.134-0.111,0.27-0.168,0.408-0.168c0.174,0,0.304,0.062,0.391,0.193l0.588,0.752c-0.254,0.305-0.537,0.568-0.848,0.785
		c-0.314,0.217-0.647,0.395-1.002,0.533c-0.356,0.137-0.726,0.24-1.11,0.303c-0.385,0.066-0.778,0.098-1.176,0.098
		c-0.689,0-1.332-0.127-1.926-0.379c-0.595-0.256-1.112-0.623-1.552-1.111c-0.438-0.486-0.784-1.082-1.034-1.791
		c-0.25-0.705-0.376-1.51-0.376-2.41c0-0.818,0.114-1.576,0.343-2.27c0.23-0.69,0.564-1.293,1.006-1.802
		c0.443-0.504,0.989-0.901,1.639-1.184c0.648-0.283,1.395-0.424,2.235-0.424c0.791,0,1.486,0.126,2.084,0.381
		c0.6,0.253,1.126,0.608,1.585,1.065L133.905-266.428z"/>
	<path fill="#50AD4E" d="M147.88-268.636c0.814,0,1.546,0.129,2.199,0.395c0.654,0.266,1.208,0.645,1.665,1.139
		c0.457,0.495,0.809,1.091,1.055,1.791c0.247,0.699,0.372,1.484,0.372,2.355s-0.124,1.658-0.372,2.361
		c-0.247,0.705-0.598,1.305-1.055,1.797c-0.458,0.494-1.012,0.871-1.665,1.135c-0.652,0.268-1.385,0.398-2.199,0.398
		c-0.812,0-1.547-0.131-2.204-0.398c-0.657-0.264-1.215-0.641-1.675-1.135c-0.461-0.492-0.816-1.092-1.062-1.797
		c-0.247-0.703-0.37-1.49-0.37-2.361s0.123-1.656,0.37-2.355c0.247-0.7,0.601-1.296,1.062-1.791c0.46-0.494,1.018-0.873,1.675-1.139
		C146.333-268.507,147.068-268.636,147.88-268.636z M147.88-258.877c1.059,0,1.85-0.353,2.372-1.064
		c0.523-0.711,0.784-1.713,0.784-3.004c0-1.285-0.261-2.285-0.784-3.004c-0.522-0.719-1.313-1.079-2.372-1.079
		c-1.074,0-1.873,0.36-2.398,1.079c-0.527,0.72-0.79,1.719-0.79,3.004c0,1.291,0.263,2.293,0.79,3.004
		C146.007-259.23,146.806-258.877,147.88-258.877z"/>
	<path fill="#50AD4E" d="M156.098-257.418v-11.046h1.24c0.29,0,0.471,0.138,0.543,0.413l0.153,1.144
		c0.478-0.515,1.012-0.932,1.599-1.251c0.588-0.32,1.267-0.478,2.036-0.478c0.601,0,1.133,0.101,1.595,0.303
		c0.459,0.206,0.847,0.488,1.159,0.853c0.311,0.366,0.546,0.809,0.707,1.32c0.16,0.511,0.24,1.076,0.24,1.701v7.041h-2.067v-7.041
		c0-0.795-0.185-1.418-0.557-1.867c-0.37-0.445-0.931-0.668-1.686-0.668c-0.56,0-1.078,0.131-1.556,0.394
		c-0.48,0.258-0.925,0.62-1.34,1.074v8.108H156.098z"/>
	<path fill="#50AD4E" d="M170.93-273.469v16.051h-2.067v-16.051H170.93z"/>
	<path fill="#50AD4E" d="M177.101-271.893c0,0.196-0.037,0.379-0.114,0.55c-0.076,0.172-0.181,0.323-0.315,0.454
		c-0.134,0.132-0.29,0.232-0.468,0.31c-0.177,0.073-0.364,0.113-0.56,0.113c-0.19,0-0.369-0.04-0.54-0.113
		c-0.17-0.077-0.321-0.178-0.451-0.31c-0.13-0.131-0.234-0.282-0.311-0.454c-0.075-0.171-0.113-0.354-0.113-0.55
		c0-0.195,0.038-0.383,0.113-0.561c0.077-0.177,0.182-0.331,0.311-0.459c0.13-0.132,0.281-0.237,0.451-0.311
		c0.171-0.077,0.35-0.114,0.54-0.114c0.195,0,0.383,0.037,0.56,0.114c0.178,0.074,0.334,0.18,0.468,0.311
		c0.134,0.128,0.24,0.282,0.315,0.459C177.064-272.276,177.101-272.088,177.101-271.893z M176.698-268.464v11.046h-2.067v-11.046
		H176.698z"/>
	<path fill="#50AD4E" d="M180.344-257.418v-11.046h1.24c0.292,0,0.473,0.138,0.546,0.413l0.151,1.144
		c0.48-0.515,1.012-0.932,1.6-1.251c0.587-0.32,1.267-0.478,2.035-0.478c0.602,0,1.133,0.101,1.594,0.303
		c0.461,0.206,0.848,0.488,1.16,0.853c0.312,0.366,0.548,0.809,0.708,1.32c0.159,0.511,0.238,1.076,0.238,1.701v7.041h-2.067v-7.041
		c0-0.795-0.185-1.418-0.556-1.867c-0.37-0.445-0.932-0.668-1.686-0.668c-0.56,0-1.078,0.131-1.558,0.394
		c-0.478,0.258-0.924,0.62-1.337,1.074v8.108H180.344z"/>
	<path fill="#50AD4E" d="M197.616-268.636c0.667,0,1.285,0.109,1.85,0.332c0.567,0.22,1.055,0.543,1.469,0.962
		c0.414,0.419,0.737,0.936,0.968,1.55c0.233,0.614,0.348,1.316,0.348,2.107c0,0.318-0.034,0.533-0.103,0.645
		c-0.068,0.107-0.197,0.162-0.385,0.162h-7.292c0.021,0.674,0.118,1.262,0.288,1.762c0.171,0.498,0.403,0.916,0.697,1.248
		c0.294,0.328,0.648,0.574,1.061,0.738c0.415,0.162,0.876,0.246,1.384,0.246c0.479,0,0.889-0.055,1.234-0.162
		c0.345-0.111,0.642-0.232,0.893-0.359c0.25-0.133,0.461-0.252,0.637-0.361c0.173-0.111,0.326-0.162,0.457-0.162
		c0.174,0,0.301,0.062,0.381,0.193l0.588,0.752c-0.254,0.305-0.549,0.565-0.882,0.779c-0.334,0.215-0.693,0.391-1.078,0.531
		c-0.384,0.143-0.782,0.248-1.19,0.31c-0.41,0.066-0.816,0.098-1.215,0.098c-0.761,0-1.466-0.129-2.117-0.385
		c-0.648-0.258-1.209-0.635-1.68-1.131c-0.471-0.498-0.841-1.115-1.105-1.852c-0.266-0.736-0.397-1.584-0.397-2.541
		c0-0.77,0.12-1.484,0.358-2.15c0.24-0.665,0.583-1.238,1.029-1.73c0.446-0.491,0.991-0.876,1.632-1.158
		C196.087-268.496,196.811-268.636,197.616-268.636z M197.648-267.125c-0.907,0-1.62,0.263-2.138,0.789
		c-0.518,0.527-0.844,1.253-0.974,2.18h5.866c0-0.432-0.062-0.83-0.185-1.193c-0.124-0.365-0.303-0.677-0.539-0.941
		c-0.236-0.259-0.524-0.465-0.865-0.612C198.472-267.048,198.085-267.125,197.648-267.125z"/>
	<path fill="#50AD4E" d="M218.903-266.428c-0.057,0.082-0.117,0.139-0.178,0.184c-0.062,0.044-0.147,0.064-0.256,0.064
		c-0.117,0-0.24-0.042-0.37-0.134c-0.131-0.092-0.291-0.188-0.479-0.294c-0.189-0.106-0.421-0.203-0.697-0.294
		c-0.275-0.092-0.613-0.135-1.012-0.135c-0.53,0-0.998,0.092-1.404,0.282c-0.406,0.189-0.746,0.46-1.018,0.814
		c-0.271,0.356-0.477,0.784-0.615,1.284c-0.137,0.5-0.207,1.068-0.207,1.699c0,0.654,0.076,1.234,0.225,1.742
		c0.148,0.508,0.36,0.936,0.631,1.285c0.271,0.348,0.602,0.613,0.989,0.793c0.389,0.182,0.822,0.271,1.301,0.271
		c0.464,0,0.845-0.057,1.144-0.168c0.297-0.111,0.543-0.234,0.739-0.365c0.196-0.129,0.361-0.252,0.496-0.363
		c0.134-0.111,0.27-0.168,0.408-0.168c0.174,0,0.304,0.062,0.391,0.193l0.588,0.752c-0.254,0.305-0.537,0.568-0.848,0.785
		c-0.312,0.217-0.646,0.395-1.002,0.533c-0.355,0.137-0.726,0.24-1.11,0.303c-0.385,0.066-0.776,0.098-1.176,0.098
		c-0.688,0-1.331-0.127-1.926-0.379c-0.595-0.256-1.112-0.623-1.551-1.111c-0.438-0.486-0.783-1.082-1.034-1.791
		c-0.25-0.705-0.375-1.51-0.375-2.41c0-0.818,0.114-1.576,0.342-2.27c0.23-0.69,0.565-1.293,1.008-1.802
		c0.443-0.504,0.988-0.901,1.638-1.184c0.648-0.283,1.395-0.424,2.236-0.424c0.792,0,1.486,0.126,2.084,0.381
		c0.6,0.253,1.126,0.608,1.585,1.065L218.903-266.428z"/>
	<path fill="#50AD4E" d="M224.084-268.464v7.041c0,0.799,0.186,1.422,0.557,1.867c0.37,0.449,0.931,0.672,1.686,0.672
		c0.551,0,1.068-0.129,1.551-0.389c0.482-0.258,0.931-0.617,1.345-1.07v-8.121h2.067v11.046h-1.24c-0.29,0-0.472-0.137-0.544-0.414
		l-0.164-1.143c-0.478,0.516-1.009,0.936-1.594,1.252c-0.585,0.32-1.26,0.48-2.03,0.48c-0.61,0-1.143-0.104-1.606-0.305
		c-0.46-0.205-0.845-0.49-1.152-0.855c-0.309-0.365-0.542-0.805-0.703-1.316c-0.16-0.512-0.24-1.08-0.24-1.705v-7.041H224.084z
		 M225.642-273.21c0.247,0,0.43,0.042,0.548,0.12c0.12,0.079,0.232,0.205,0.333,0.37l1.612,2.634h-1.176
		c-0.16,0-0.293-0.023-0.396-0.072c-0.106-0.045-0.209-0.126-0.311-0.242l-2.557-2.81H225.642z"/>
	<path fill="#50AD4E" d="M234.826-257.418v-11.046h1.24c0.292,0,0.473,0.138,0.546,0.413l0.151,1.144
		c0.48-0.515,1.012-0.932,1.6-1.251c0.587-0.32,1.267-0.478,2.035-0.478c0.602,0,1.133,0.101,1.594,0.303
		c0.461,0.206,0.848,0.488,1.16,0.853c0.311,0.366,0.548,0.809,0.708,1.32c0.159,0.511,0.238,1.076,0.238,1.701v7.041h-2.067v-7.041
		c0-0.795-0.185-1.418-0.556-1.867c-0.37-0.445-0.932-0.668-1.686-0.668c-0.56,0-1.078,0.131-1.558,0.394
		c-0.479,0.258-0.924,0.62-1.338,1.074v8.108H234.826z"/>
	<path fill="#50AD4E" d="M251.412-268.647c0.48,0,0.924,0.052,1.334,0.157c0.409,0.101,0.79,0.254,1.138,0.451h3.046v0.762
		c0,0.261-0.158,0.426-0.478,0.489l-1.208,0.177c0.224,0.462,0.337,0.971,0.337,1.521c0,0.542-0.103,1.035-0.31,1.47
		c-0.207,0.434-0.495,0.809-0.865,1.119c-0.37,0.312-0.811,0.555-1.323,0.721c-0.51,0.164-1.068,0.248-1.67,0.248
		c-0.508,0-0.979-0.053-1.415-0.16c-0.457,0.273-0.685,0.576-0.685,0.91c0,0.254,0.107,0.445,0.321,0.574
		c0.214,0.125,0.496,0.217,0.844,0.277c0.348,0.057,0.744,0.094,1.187,0.107c0.442,0.016,0.896,0.037,1.36,0.072
		c0.464,0.031,0.918,0.088,1.36,0.168c0.442,0.078,0.836,0.211,1.185,0.395c0.349,0.188,0.63,0.435,0.846,0.76
		c0.213,0.316,0.319,0.736,0.319,1.25c0,0.48-0.117,0.943-0.352,1.387c-0.237,0.449-0.577,0.844-1.024,1.189
		c-0.447,0.342-0.992,0.619-1.638,0.83c-0.646,0.213-1.374,0.314-2.187,0.314c-0.814,0-1.523-0.078-2.128-0.24
		c-0.607-0.156-1.111-0.371-1.513-0.643c-0.403-0.266-0.704-0.576-0.902-0.928c-0.2-0.352-0.3-0.719-0.3-1.105
		c0-0.541,0.168-1.002,0.505-1.375c0.337-0.375,0.801-0.666,1.388-0.877c-0.326-0.147-0.583-0.344-0.772-0.594
		c-0.188-0.248-0.283-0.58-0.283-0.994c0-0.162,0.028-0.324,0.087-0.496c0.059-0.168,0.147-0.34,0.266-0.512
		c0.121-0.168,0.27-0.33,0.446-0.482c0.179-0.154,0.383-0.289,0.616-0.406c-0.544-0.301-0.972-0.707-1.284-1.213
		c-0.312-0.502-0.47-1.094-0.47-1.767c0-0.546,0.106-1.034,0.315-1.471c0.211-0.434,0.503-0.809,0.878-1.122
		c0.373-0.309,0.817-0.549,1.332-0.717C250.23-268.568,250.796-268.647,251.412-268.647z M254.83-256.84
		c0-0.264-0.074-0.471-0.222-0.631c-0.149-0.16-0.35-0.287-0.605-0.383c-0.254-0.092-0.548-0.158-0.882-0.195
		c-0.332-0.037-0.685-0.066-1.055-0.086c-0.371-0.021-0.749-0.043-1.138-0.064c-0.389-0.023-0.76-0.061-1.115-0.109
		c-0.391,0.186-0.711,0.42-0.958,0.693c-0.247,0.277-0.37,0.602-0.37,0.971c0,0.242,0.062,0.463,0.184,0.67
		c0.123,0.205,0.311,0.385,0.561,0.533c0.251,0.148,0.57,0.266,0.958,0.352c0.389,0.088,0.847,0.131,1.377,0.131
		c0.521,0,0.985-0.045,1.392-0.139c0.406-0.096,0.747-0.227,1.024-0.393c0.275-0.166,0.485-0.365,0.631-0.594
		C254.757-256.312,254.83-256.562,254.83-256.84z M251.412-262.891c0.386,0,0.722-0.055,1.012-0.156
		c0.291-0.105,0.534-0.256,0.729-0.443c0.197-0.189,0.343-0.414,0.441-0.674c0.099-0.264,0.147-0.551,0.147-0.871
		c0-0.654-0.197-1.174-0.594-1.562c-0.394-0.389-0.974-0.582-1.736-0.582c-0.761,0-1.339,0.193-1.736,0.582
		c-0.394,0.389-0.593,0.908-0.593,1.562c0,0.314,0.052,0.599,0.153,0.859c0.102,0.26,0.249,0.488,0.445,0.68
		c0.197,0.193,0.44,0.344,0.73,0.449C250.701-262.945,251.035-262.891,251.412-262.891z"/>
	<path fill="#50AD4E" d="M273.223-266.428c-0.058,0.082-0.118,0.139-0.18,0.184c-0.061,0.044-0.147,0.064-0.255,0.064
		c-0.117,0-0.24-0.042-0.37-0.134c-0.132-0.092-0.291-0.188-0.48-0.294c-0.189-0.106-0.421-0.203-0.696-0.294
		c-0.276-0.092-0.614-0.135-1.012-0.135c-0.53,0-0.997,0.092-1.404,0.282c-0.407,0.189-0.747,0.46-1.018,0.814
		c-0.271,0.356-0.477,0.784-0.615,1.284c-0.137,0.5-0.207,1.068-0.207,1.699c0,0.654,0.075,1.234,0.224,1.742
		c0.148,0.508,0.359,0.936,0.631,1.285c0.271,0.348,0.602,0.613,0.99,0.793c0.388,0.182,0.822,0.271,1.3,0.271
		c0.466,0,0.845-0.057,1.144-0.168c0.297-0.111,0.544-0.234,0.739-0.365c0.197-0.129,0.361-0.252,0.497-0.363
		c0.133-0.111,0.27-0.168,0.407-0.168c0.174,0,0.305,0.062,0.391,0.193l0.59,0.752c-0.254,0.305-0.538,0.568-0.85,0.785
		c-0.313,0.217-0.647,0.395-1.002,0.533c-0.354,0.137-0.726,0.24-1.109,0.303c-0.384,0.066-0.777,0.098-1.177,0.098
		c-0.688,0-1.33-0.127-1.925-0.379c-0.596-0.256-1.113-0.623-1.551-1.111c-0.44-0.486-0.784-1.082-1.035-1.791
		c-0.25-0.705-0.374-1.51-0.374-2.41c0-0.818,0.113-1.576,0.343-2.27c0.228-0.69,0.564-1.293,1.006-1.802
		c0.442-0.504,0.988-0.901,1.637-1.184c0.65-0.283,1.396-0.424,2.237-0.424c0.791,0,1.485,0.126,2.085,0.381
		c0.598,0.253,1.125,0.608,1.583,1.065L273.223-266.428z"/>
	<path fill="#50AD4E" d="M276.444-257.418v-16.051h2.069v6.421c0.464-0.479,0.979-0.865,1.546-1.156
		c0.565-0.285,1.218-0.432,1.957-0.432c0.603,0,1.134,0.101,1.596,0.303c0.46,0.206,0.847,0.488,1.158,0.853
		c0.313,0.366,0.548,0.809,0.708,1.32c0.159,0.511,0.239,1.076,0.239,1.701v7.041h-2.068v-7.041c0-0.795-0.185-1.418-0.556-1.867
		c-0.37-0.445-0.933-0.668-1.686-0.668c-0.56,0-1.078,0.131-1.558,0.394c-0.478,0.258-0.924,0.62-1.337,1.074v8.108H276.444z"/>
	<path fill="#50AD4E" d="M291.116-268.464v7.041c0,0.799,0.184,1.422,0.555,1.867c0.37,0.449,0.932,0.672,1.687,0.672
		c0.551,0,1.069-0.129,1.551-0.389c0.481-0.258,0.93-0.617,1.344-1.07v-8.121h2.067v11.046h-1.239c-0.291,0-0.473-0.137-0.546-0.414
		l-0.163-1.143c-0.479,0.516-1.011,0.936-1.594,1.252c-0.585,0.32-1.261,0.48-2.03,0.48c-0.608,0-1.143-0.104-1.604-0.305
		c-0.461-0.205-0.845-0.49-1.154-0.855c-0.308-0.365-0.542-0.805-0.703-1.316c-0.16-0.512-0.238-1.08-0.238-1.705v-7.041H291.116z"
		/>
	<path fill="#50AD4E" d="M305.331-254.197c-0.067,0.16-0.15,0.283-0.251,0.367c-0.101,0.082-0.257,0.125-0.468,0.125h-1.535
		l2.024-4.387l-4.548-10.373h1.796c0.173,0,0.311,0.043,0.413,0.125c0.101,0.084,0.17,0.181,0.207,0.288l2.862,6.749
		c0.124,0.334,0.222,0.662,0.294,0.994c0.05-0.17,0.104-0.338,0.163-0.51c0.059-0.17,0.119-0.34,0.186-0.506l2.765-6.727
		c0.044-0.122,0.119-0.223,0.227-0.299c0.109-0.074,0.231-0.114,0.37-0.114h1.643L305.331-254.197z"/>
	<path fill="#50AD4E" d="M317.923-268.636c0.664,0,1.285,0.109,1.849,0.332c0.568,0.22,1.057,0.543,1.468,0.962
		c0.416,0.419,0.74,0.936,0.971,1.55c0.233,0.614,0.348,1.316,0.348,2.107c0,0.318-0.034,0.533-0.105,0.645
		c-0.067,0.107-0.197,0.162-0.384,0.162h-7.291c0.021,0.674,0.115,1.262,0.287,1.762c0.173,0.498,0.404,0.916,0.696,1.248
		c0.295,0.328,0.649,0.574,1.061,0.738c0.414,0.162,0.878,0.246,1.386,0.246c0.479,0,0.888-0.055,1.232-0.162
		c0.344-0.111,0.643-0.232,0.893-0.359c0.251-0.133,0.464-0.252,0.639-0.361c0.171-0.111,0.324-0.162,0.456-0.162
		c0.175,0,0.303,0.062,0.381,0.193l0.586,0.752c-0.254,0.305-0.545,0.565-0.882,0.779c-0.332,0.215-0.691,0.391-1.075,0.531
		c-0.385,0.143-0.785,0.248-1.192,0.31c-0.411,0.066-0.813,0.098-1.213,0.098c-0.762,0-1.469-0.129-2.119-0.385
		c-0.649-0.258-1.211-0.635-1.68-1.131c-0.471-0.498-0.841-1.115-1.106-1.852c-0.265-0.736-0.396-1.584-0.396-2.541
		c0-0.77,0.12-1.484,0.358-2.15c0.24-0.665,0.583-1.238,1.028-1.73c0.449-0.491,0.994-0.876,1.632-1.158
		C316.391-268.496,317.116-268.636,317.923-268.636z M321.371-270.137h-1.382c-0.087,0-0.173-0.018-0.254-0.046
		c-0.083-0.029-0.168-0.086-0.259-0.174l-1.292-1.383c-0.06-0.051-0.12-0.12-0.187-0.205l-0.183,0.205l-1.308,1.383
		c-0.16,0.145-0.329,0.22-0.511,0.22h-1.439l2.452-2.896h1.916L321.371-270.137z M317.956-267.125c-0.906,0-1.62,0.263-2.14,0.789
		c-0.52,0.527-0.844,1.253-0.976,2.18h5.869c0-0.432-0.064-0.83-0.187-1.193c-0.124-0.365-0.302-0.677-0.539-0.941
		c-0.235-0.259-0.522-0.465-0.866-0.612C318.778-267.048,318.39-267.125,317.956-267.125z"/>
	<path fill="#50AD4E" d="M325.419-257.418v-11.046h1.241c0.291,0,0.474,0.138,0.545,0.413l0.152,1.144
		c0.478-0.515,1.012-0.932,1.6-1.251c0.585-0.32,1.266-0.478,2.035-0.478c0.601,0,1.131,0.101,1.595,0.303
		c0.46,0.206,0.848,0.488,1.158,0.853c0.314,0.366,0.55,0.809,0.71,1.32c0.158,0.511,0.24,1.076,0.24,1.701v7.041h-2.07v-7.041
		c0-0.795-0.183-1.418-0.557-1.867c-0.37-0.445-0.93-0.668-1.685-0.668c-0.56,0-1.079,0.131-1.558,0.394
		c-0.479,0.258-0.922,0.62-1.337,1.074v8.108H325.419z"/>
	<path fill="#50AD4E" d="M348.07-268.647c0.478,0,0.922,0.052,1.333,0.157c0.407,0.101,0.788,0.254,1.135,0.451h3.048v0.762
		c0,0.261-0.16,0.426-0.477,0.489l-1.21,0.177c0.224,0.462,0.34,0.971,0.34,1.521c0,0.542-0.104,1.035-0.31,1.47
		c-0.21,0.434-0.497,0.809-0.867,1.119c-0.37,0.312-0.81,0.555-1.322,0.721c-0.512,0.164-1.069,0.248-1.67,0.248
		c-0.508,0-0.982-0.053-1.416-0.16c-0.456,0.273-0.687,0.576-0.687,0.91c0,0.254,0.108,0.445,0.321,0.574
		c0.217,0.125,0.497,0.217,0.844,0.277c0.348,0.057,0.744,0.094,1.188,0.107c0.441,0.016,0.896,0.037,1.36,0.072
		c0.463,0.031,0.918,0.088,1.359,0.168c0.444,0.078,0.837,0.211,1.188,0.395c0.347,0.188,0.628,0.435,0.844,0.76
		c0.214,0.316,0.318,0.736,0.318,1.25c0,0.48-0.116,0.943-0.351,1.387c-0.236,0.449-0.58,0.844-1.023,1.189
		c-0.449,0.342-0.994,0.619-1.641,0.83c-0.646,0.213-1.375,0.314-2.184,0.314c-0.815,0-1.525-0.078-2.13-0.24
		c-0.605-0.156-1.109-0.371-1.512-0.643c-0.404-0.266-0.703-0.576-0.905-0.928c-0.197-0.352-0.298-0.719-0.298-1.105
		c0-0.541,0.169-1.002,0.508-1.375c0.336-0.375,0.799-0.666,1.386-0.877c-0.325-0.147-0.582-0.344-0.774-0.594
		c-0.187-0.248-0.28-0.58-0.28-0.994c0-0.162,0.026-0.324,0.086-0.496c0.056-0.168,0.145-0.34,0.265-0.512
		c0.121-0.168,0.269-0.33,0.448-0.482c0.176-0.154,0.382-0.289,0.613-0.406c-0.541-0.301-0.971-0.707-1.282-1.213
		c-0.313-0.502-0.47-1.094-0.47-1.767c0-0.546,0.104-1.034,0.317-1.471c0.21-0.434,0.501-0.809,0.874-1.122
		c0.374-0.309,0.818-0.549,1.333-0.717C346.887-268.568,347.454-268.647,348.07-268.647z M351.488-256.84
		c0-0.264-0.074-0.471-0.224-0.631c-0.15-0.16-0.351-0.287-0.605-0.383c-0.254-0.092-0.548-0.158-0.881-0.195
		c-0.333-0.037-0.684-0.066-1.054-0.086c-0.374-0.021-0.751-0.043-1.139-0.064c-0.388-0.023-0.758-0.061-1.117-0.109
		c-0.389,0.186-0.711,0.42-0.956,0.693c-0.247,0.277-0.37,0.602-0.37,0.971c0,0.242,0.059,0.463,0.182,0.67
		c0.123,0.205,0.314,0.385,0.564,0.533c0.25,0.148,0.568,0.266,0.957,0.352c0.388,0.088,0.848,0.131,1.377,0.131
		c0.52,0,0.986-0.045,1.39-0.139c0.407-0.096,0.747-0.227,1.022-0.393c0.277-0.166,0.487-0.365,0.632-0.594
		C351.414-256.312,351.488-256.562,351.488-256.84z M348.07-262.891c0.384,0,0.721-0.055,1.012-0.156
		c0.288-0.105,0.531-0.256,0.728-0.443c0.194-0.189,0.344-0.414,0.442-0.674c0.097-0.264,0.145-0.551,0.145-0.871
		c0-0.654-0.199-1.174-0.594-1.562c-0.393-0.389-0.971-0.582-1.733-0.582c-0.762,0-1.34,0.193-1.737,0.582
		c-0.396,0.389-0.594,0.908-0.594,1.562c0,0.314,0.052,0.599,0.154,0.859c0.1,0.26,0.25,0.488,0.444,0.68
		c0.198,0.193,0.441,0.344,0.732,0.449C347.356-262.945,347.693-262.891,348.07-262.891z"/>
	<path fill="#50AD4E" d="M358.661-271.893c0,0.196-0.042,0.379-0.117,0.55c-0.074,0.172-0.183,0.323-0.317,0.454
		c-0.131,0.132-0.287,0.232-0.466,0.31c-0.176,0.073-0.363,0.113-0.56,0.113c-0.186,0-0.367-0.04-0.538-0.113
		c-0.173-0.077-0.321-0.178-0.453-0.31c-0.13-0.131-0.235-0.282-0.31-0.454c-0.074-0.171-0.116-0.354-0.116-0.55
		c0-0.195,0.042-0.383,0.116-0.561c0.074-0.177,0.18-0.331,0.31-0.459c0.131-0.132,0.28-0.237,0.453-0.311
		c0.171-0.077,0.352-0.114,0.538-0.114c0.197,0,0.384,0.037,0.56,0.114c0.18,0.074,0.335,0.18,0.466,0.311
		c0.134,0.128,0.243,0.282,0.317,0.459C358.619-272.276,358.661-272.088,358.661-271.893z M358.257-268.464v11.046h-2.07v-11.046
		H358.257z"/>
	<path fill="#50AD4E" d="M368.965-257.418c-0.201,0-0.358-0.031-0.467-0.096c-0.111-0.066-0.197-0.195-0.261-0.383l-0.228-0.988
		c-0.283,0.26-0.564,0.494-0.839,0.699c-0.277,0.209-0.564,0.381-0.864,0.52c-0.303,0.137-0.624,0.244-0.964,0.314
		c-0.343,0.074-0.724,0.109-1.142,0.109c-0.436,0-0.845-0.061-1.222-0.18c-0.376-0.121-0.705-0.305-0.982-0.549
		c-0.28-0.248-0.5-0.555-0.665-0.92c-0.164-0.365-0.246-0.799-0.246-1.303c0-0.436,0.119-0.85,0.354-1.25
		c0.235-0.4,0.621-0.758,1.154-1.07c0.534-0.318,1.229-0.576,2.087-0.779c0.864-0.203,1.92-0.32,3.175-0.35v-0.824
		c0-0.836-0.179-1.464-0.541-1.891c-0.358-0.425-0.885-0.636-1.581-0.636c-0.474,0-0.867,0.06-1.184,0.18
		c-0.314,0.119-0.586,0.252-0.815,0.391c-0.227,0.141-0.43,0.271-0.605,0.386c-0.171,0.117-0.347,0.177-0.522,0.177
		c-0.146,0-0.266-0.04-0.363-0.116c-0.097-0.074-0.183-0.166-0.257-0.267l-0.37-0.677c0.615-0.576,1.285-1.014,1.998-1.305
		c0.712-0.288,1.501-0.434,2.367-0.434c0.624,0,1.178,0.1,1.663,0.303c0.485,0.206,0.896,0.488,1.225,0.854
		c0.333,0.369,0.582,0.811,0.751,1.322c0.171,0.517,0.257,1.088,0.257,1.713v7.049H368.965z M364.819-258.691
		c0.325,0,0.628-0.031,0.908-0.096c0.28-0.066,0.541-0.16,0.783-0.283c0.243-0.123,0.476-0.273,0.691-0.451
		c0.217-0.178,0.434-0.381,0.654-0.605v-2.219c-0.87,0.027-1.613,0.098-2.223,0.207c-0.608,0.108-1.1,0.248-1.482,0.424
		c-0.381,0.174-0.661,0.381-0.833,0.625c-0.175,0.242-0.261,0.51-0.261,0.801c0,0.281,0.044,0.523,0.134,0.73
		c0.09,0.199,0.217,0.365,0.378,0.492c0.155,0.127,0.343,0.223,0.559,0.285C364.341-258.723,364.572-258.691,364.819-258.691z"/>
	<g>
		<path fill="#50AD4E" d="M96.876-329.101c0-0.866,0.678-1.601,1.627-1.601h1.966c0.881,0,1.628,0.734,1.628,1.601v18.878
			l21.154-19.812c0.271-0.333,0.881-0.667,1.287-0.667h3.323c1.221,0,1.9,1.335,0.815,2.335l-21.426,19.677l22.442,22.615
			c0.474,0.467,0.339,2.067-1.152,2.067h-3.458c-0.475,0-1.085-0.267-1.221-0.467l-21.764-22.346v21.212
			c0,0.866-0.746,1.601-1.628,1.601h-1.966c-0.95,0-1.627-0.734-1.627-1.601V-329.101z"/>
	</g>
	<g>
		<g>
			<path fill="#50AD4E" d="M153.825-306.47l-16.085-22.291c-0.533-0.868,0-1.937,1.067-1.937h3.138c0.467,0,0.867,0.334,1.067,0.602
				l13.481,18.619l13.482-18.619c0.199-0.268,0.599-0.602,1.066-0.602h3.137c1.067,0,1.602,1.068,1.067,1.937l-16.284,22.224v21.29
				c0,0.668-0.6,1.266-1.268,1.266h-2.603c-0.733,0-1.267-0.598-1.267-1.266V-306.47z"/>
		</g>
	</g>
	<g>
		<g>
			<path fill="#50AD4E" d="M230.256-285.691l20.288-44.283c0.201-0.396,0.535-0.724,1.135-0.724h0.667
				c0.602,0,0.935,0.327,1.135,0.724l20.155,44.283c0.401,0.856-0.133,1.709-1.135,1.709h-2.669c-0.6,0-1.001-0.393-1.135-0.722
				l-4.939-10.858h-23.692l-4.872,10.858c-0.133,0.329-0.533,0.722-1.135,0.722h-2.669
				C230.389-283.982,229.856-284.835,230.256-285.691z M261.957-299.681c-3.269-7.19-6.474-14.447-9.744-21.639h-0.533
				l-9.745,21.639H261.957z"/>
		</g>
	</g>
	<g>
		<g>
			<path fill="#50AD4E" d="M183.786-328.967c0-0.667,0.286-1.699,1.317-1.701c0,0,1.031-0.029,1.484-0.029
				c0.703,0,1.254,0.777,1.254,0.777l28.962,36.028c0.067,0,0.067,0,0.135,0v-35.509c0-0.669,0.533-1.267,1.267-1.267h2.336
				c0.668,0,1.268,0.598,1.268,1.267v44.326c0,0.664-0.618,1.062-1.286,1.062c0,0-0.173,0.04-1.438,0.031
				c-0.652-0.005-1.478-1.165-1.478-1.165l-28.902-36.396h-0.066v36.243c0,0.667-0.535,1.267-1.269,1.267h-2.336
				c-0.668,0-1.268-0.6-1.268-1.267L183.786-328.967z"/>
		</g>
	</g>
	<g>
		<path fill="#50AD4E" d="M280.08-328.951c-0.401-0.855,0.132-1.71,1.134-1.71h2.67c0.601,0,1.002,0.395,1.134,0.724l16.618,36.816
			h0.268l16.618-36.816c0.132-0.329,0.599-0.724,1.135-0.724h2.669c1.001,0,1.535,0.854,1.133,1.71l-20.287,44.247
			c-0.201,0.393-0.602,0.722-1.136,0.722h-0.666c-0.467,0-0.935-0.329-1.135-0.722L280.08-328.951z"/>
	</g>
	<circle fill="#50AD4E" cx="286.071" cy="-287.972" r="3.989"/>
	<g>
		<g>
			<path fill="#50AD4E" d="M331.922-328.967c0-0.667,0.286-1.699,1.317-1.701c0,0,1.031-0.029,1.484-0.029
				c0.703,0,1.254,0.777,1.254,0.777l28.962,36.028c0.067,0,0.067,0,0.135,0v-35.509c0-0.669,0.533-1.267,1.267-1.267h2.336
				c0.668,0,1.269,0.598,1.269,1.267v44.326c0,0.664-0.618,1.062-1.286,1.062c0,0-0.173,0.04-1.438,0.031
				c-0.652-0.005-1.478-1.165-1.478-1.165l-28.902-36.396h-0.066v36.243c0,0.667-0.535,1.267-1.269,1.267h-2.336
				c-0.668,0-1.269-0.6-1.269-1.267L331.922-328.967z"/>
		</g>
	</g>
</g>
<g>
	<path fill="#50AD4E" d="M27.761,85.689h-2.253v-7.061H17.27v7.061h-2.254V70.074h2.254v6.922h8.238v-6.922h2.253V85.689z"/>
	<path fill="#50AD4E" d="M36.119,74.471c0.812,0,1.545,0.129,2.199,0.395c0.653,0.266,1.208,0.645,1.665,1.139
		c0.457,0.495,0.81,1.091,1.057,1.791c0.246,0.699,0.37,1.484,0.37,2.355c0,0.871-0.125,1.658-0.37,2.361
		c-0.247,0.705-0.6,1.305-1.057,1.797c-0.457,0.494-1.012,0.871-1.665,1.135c-0.654,0.268-1.386,0.399-2.199,0.399
		c-0.812,0-1.547-0.131-2.204-0.399c-0.657-0.264-1.215-0.641-1.675-1.135c-0.463-0.492-0.815-1.092-1.062-1.797
		c-0.247-0.703-0.37-1.49-0.37-2.361c0-0.871,0.123-1.656,0.37-2.355c0.247-0.7,0.6-1.296,1.062-1.791
		c0.459-0.494,1.018-0.873,1.675-1.139C34.572,74.6,35.307,74.471,36.119,74.471z M36.119,84.23c1.06,0,1.85-0.354,2.373-1.064
		c0.522-0.711,0.784-1.713,0.784-3.004c0-1.285-0.262-2.285-0.784-3.004c-0.523-0.719-1.313-1.079-2.373-1.079
		c-1.075,0-1.873,0.36-2.399,1.079c-0.527,0.72-0.788,1.719-0.788,3.004c0,1.291,0.261,2.293,0.788,3.004
		C34.246,83.877,35.044,84.23,36.119,84.23z M37.425,88.379c0,0.176-0.034,0.338-0.104,0.49c-0.069,0.15-0.163,0.285-0.283,0.402
		c-0.121,0.117-0.258,0.207-0.415,0.279c-0.155,0.066-0.319,0.1-0.494,0.1c-0.174,0-0.338-0.033-0.49-0.1
		c-0.153-0.072-0.286-0.162-0.398-0.279c-0.111-0.117-0.203-0.252-0.271-0.402c-0.07-0.152-0.104-0.314-0.104-0.49
		c0-0.174,0.034-0.342,0.104-0.502c0.068-0.156,0.16-0.297,0.271-0.41c0.113-0.117,0.246-0.209,0.398-0.281
		c0.151-0.068,0.316-0.102,0.49-0.102c0.174,0,0.338,0.033,0.494,0.102c0.156,0.072,0.294,0.164,0.415,0.281
		c0.12,0.113,0.214,0.254,0.283,0.41C37.391,88.037,37.425,88.205,37.425,88.379z"/>
	<path fill="#50AD4E" d="M52.062,76.679c-0.057,0.082-0.117,0.139-0.178,0.185c-0.062,0.044-0.149,0.063-0.257,0.063
		c-0.115,0-0.24-0.042-0.37-0.134c-0.13-0.092-0.29-0.188-0.479-0.294c-0.189-0.107-0.421-0.203-0.697-0.294
		c-0.275-0.092-0.613-0.135-1.012-0.135c-0.53,0-0.999,0.092-1.404,0.282c-0.407,0.189-0.747,0.46-1.018,0.814
		c-0.272,0.356-0.477,0.784-0.615,1.284c-0.137,0.5-0.208,1.068-0.208,1.699c0,0.654,0.075,1.234,0.223,1.742
		c0.149,0.508,0.36,0.936,0.632,1.285c0.271,0.348,0.603,0.613,0.99,0.793c0.388,0.182,0.822,0.271,1.301,0.271
		c0.463,0,0.845-0.057,1.143-0.168c0.297-0.111,0.544-0.234,0.74-0.365c0.195-0.129,0.361-0.252,0.496-0.363
		c0.134-0.111,0.269-0.168,0.408-0.168c0.174,0,0.304,0.062,0.391,0.193l0.588,0.752c-0.254,0.305-0.537,0.568-0.848,0.785
		c-0.314,0.217-0.647,0.395-1.002,0.533c-0.356,0.137-0.726,0.24-1.11,0.303c-0.385,0.066-0.778,0.098-1.176,0.098
		c-0.689,0-1.332-0.127-1.926-0.379c-0.595-0.256-1.112-0.623-1.552-1.111c-0.438-0.486-0.784-1.082-1.034-1.791
		c-0.25-0.705-0.375-1.51-0.375-2.41c0-0.818,0.114-1.576,0.343-2.27c0.23-0.69,0.564-1.293,1.006-1.802
		c0.443-0.504,0.989-0.901,1.639-1.184c0.648-0.283,1.395-0.424,2.235-0.424c0.791,0,1.486,0.126,2.084,0.381
		c0.6,0.253,1.126,0.608,1.584,1.064L52.062,76.679z"/>
	<path fill="#50AD4E" d="M66.037,74.471c0.813,0,1.546,0.129,2.199,0.395c0.654,0.266,1.208,0.645,1.666,1.139
		c0.457,0.495,0.809,1.091,1.055,1.791c0.247,0.699,0.372,1.484,0.372,2.355c0,0.871-0.124,1.658-0.372,2.361
		c-0.247,0.705-0.598,1.305-1.055,1.797c-0.458,0.494-1.012,0.871-1.666,1.135c-0.652,0.268-1.385,0.399-2.199,0.399
		c-0.812,0-1.547-0.131-2.204-0.399c-0.657-0.264-1.215-0.641-1.675-1.135c-0.461-0.492-0.815-1.092-1.062-1.797
		c-0.247-0.703-0.37-1.49-0.37-2.361c0-0.871,0.123-1.656,0.37-2.355c0.247-0.7,0.601-1.296,1.062-1.791
		c0.46-0.494,1.018-0.873,1.675-1.139C64.49,74.6,65.225,74.471,66.037,74.471z M66.037,84.23c1.059,0,1.85-0.354,2.373-1.064
		c0.522-0.711,0.784-1.713,0.784-3.004c0-1.285-0.261-2.285-0.784-3.004c-0.522-0.719-1.313-1.079-2.373-1.079
		c-1.074,0-1.873,0.36-2.398,1.079c-0.527,0.72-0.79,1.719-0.79,3.004c0,1.291,0.263,2.293,0.79,3.004
		C64.164,83.877,64.963,84.23,66.037,84.23z"/>
	<path fill="#50AD4E" d="M74.255,85.689V74.643h1.24c0.29,0,0.471,0.138,0.543,0.413l0.153,1.144
		c0.478-0.515,1.012-0.932,1.599-1.251c0.588-0.32,1.267-0.478,2.036-0.478c0.601,0,1.133,0.101,1.595,0.303
		c0.459,0.206,0.847,0.488,1.159,0.854c0.311,0.366,0.546,0.809,0.707,1.32c0.16,0.511,0.24,1.076,0.24,1.701v7.041h-2.067v-7.041
		c0-0.795-0.185-1.418-0.557-1.867c-0.37-0.445-0.931-0.668-1.686-0.668c-0.56,0-1.078,0.131-1.556,0.394
		c-0.48,0.258-0.925,0.62-1.34,1.074v8.108H74.255z"/>
	<path fill="#50AD4E" d="M89.087,69.638v16.051H87.02V69.638H89.087z"/>
	<path fill="#50AD4E" d="M95.258,71.214c0,0.196-0.037,0.379-0.114,0.55c-0.076,0.172-0.181,0.323-0.315,0.454
		c-0.134,0.132-0.29,0.232-0.468,0.31c-0.177,0.073-0.364,0.113-0.56,0.113c-0.19,0-0.369-0.04-0.54-0.113
		c-0.17-0.077-0.321-0.178-0.451-0.31c-0.13-0.131-0.234-0.282-0.312-0.454c-0.075-0.171-0.113-0.354-0.113-0.55
		c0-0.195,0.038-0.383,0.113-0.561c0.077-0.177,0.182-0.331,0.312-0.459c0.13-0.132,0.281-0.237,0.451-0.312
		c0.171-0.077,0.35-0.114,0.54-0.114c0.195,0,0.383,0.037,0.56,0.114c0.178,0.074,0.335,0.18,0.468,0.312
		c0.134,0.128,0.24,0.282,0.315,0.459C95.221,70.831,95.258,71.019,95.258,71.214z M94.855,74.643v11.046h-2.067V74.643H94.855z"/>
	<path fill="#50AD4E" d="M98.501,85.689V74.643h1.24c0.292,0,0.473,0.138,0.546,0.413l0.151,1.144
		c0.479-0.515,1.012-0.932,1.6-1.251c0.587-0.32,1.267-0.478,2.035-0.478c0.602,0,1.133,0.101,1.594,0.303
		c0.461,0.206,0.848,0.488,1.16,0.854c0.312,0.366,0.548,0.809,0.708,1.32c0.159,0.511,0.238,1.076,0.238,1.701v7.041h-2.067v-7.041
		c0-0.795-0.185-1.418-0.556-1.867c-0.37-0.445-0.932-0.668-1.686-0.668c-0.56,0-1.078,0.131-1.558,0.394
		c-0.478,0.258-0.924,0.62-1.337,1.074v8.108H98.501z"/>
	<path fill="#50AD4E" d="M115.773,74.471c0.667,0,1.285,0.109,1.85,0.332c0.567,0.22,1.055,0.543,1.469,0.962
		c0.414,0.419,0.737,0.937,0.968,1.55c0.233,0.614,0.348,1.316,0.348,2.107c0,0.318-0.034,0.533-0.103,0.645
		c-0.068,0.107-0.197,0.162-0.385,0.162h-7.292c0.021,0.674,0.118,1.262,0.288,1.762c0.171,0.498,0.403,0.916,0.697,1.248
		c0.294,0.328,0.648,0.574,1.061,0.738c0.415,0.162,0.876,0.246,1.384,0.246c0.479,0,0.889-0.055,1.234-0.162
		c0.345-0.111,0.642-0.232,0.893-0.359c0.25-0.133,0.461-0.252,0.637-0.361c0.173-0.111,0.326-0.162,0.458-0.162
		c0.174,0,0.301,0.062,0.381,0.193l0.588,0.752c-0.254,0.305-0.549,0.564-0.882,0.779c-0.335,0.215-0.693,0.391-1.078,0.531
		c-0.384,0.143-0.782,0.248-1.19,0.311c-0.41,0.066-0.815,0.098-1.215,0.098c-0.761,0-1.466-0.129-2.117-0.385
		c-0.648-0.258-1.209-0.635-1.68-1.131c-0.471-0.498-0.841-1.115-1.105-1.852c-0.266-0.736-0.397-1.584-0.397-2.541
		c0-0.77,0.12-1.484,0.358-2.15c0.24-0.665,0.582-1.238,1.029-1.73c0.446-0.491,0.991-0.876,1.632-1.158
		C114.244,74.612,114.968,74.471,115.773,74.471z M115.806,75.982c-0.907,0-1.62,0.263-2.138,0.789
		c-0.518,0.527-0.844,1.253-0.974,2.18h5.866c0-0.432-0.062-0.83-0.185-1.193c-0.124-0.365-0.303-0.677-0.539-0.94
		c-0.236-0.259-0.524-0.465-0.865-0.612C116.629,76.059,116.242,75.982,115.806,75.982z"/>
	<path fill="#50AD4E" d="M137.061,76.679c-0.057,0.082-0.117,0.139-0.178,0.185c-0.062,0.044-0.147,0.063-0.256,0.063
		c-0.117,0-0.24-0.042-0.37-0.134c-0.131-0.092-0.291-0.188-0.479-0.294c-0.189-0.107-0.421-0.203-0.697-0.294
		c-0.275-0.092-0.613-0.135-1.012-0.135c-0.53,0-0.998,0.092-1.404,0.282c-0.406,0.189-0.746,0.46-1.018,0.814
		c-0.271,0.356-0.477,0.784-0.615,1.284c-0.137,0.5-0.207,1.068-0.207,1.699c0,0.654,0.076,1.234,0.225,1.742
		c0.148,0.508,0.36,0.936,0.631,1.285c0.271,0.348,0.602,0.613,0.989,0.793c0.389,0.182,0.822,0.271,1.301,0.271
		c0.464,0,0.845-0.057,1.144-0.168c0.297-0.111,0.543-0.234,0.739-0.365c0.196-0.129,0.361-0.252,0.496-0.363
		c0.134-0.111,0.27-0.168,0.408-0.168c0.174,0,0.304,0.062,0.391,0.193l0.588,0.752c-0.254,0.305-0.537,0.568-0.848,0.785
		c-0.312,0.217-0.646,0.395-1.002,0.533c-0.355,0.137-0.726,0.24-1.11,0.303c-0.385,0.066-0.776,0.098-1.176,0.098
		c-0.688,0-1.331-0.127-1.926-0.379c-0.595-0.256-1.112-0.623-1.551-1.111c-0.438-0.486-0.783-1.082-1.034-1.791
		c-0.25-0.705-0.375-1.51-0.375-2.41c0-0.818,0.114-1.576,0.342-2.27c0.23-0.69,0.565-1.293,1.008-1.802
		c0.443-0.504,0.988-0.901,1.638-1.184c0.648-0.283,1.395-0.424,2.236-0.424c0.792,0,1.486,0.126,2.084,0.381
		c0.6,0.253,1.126,0.608,1.585,1.064L137.061,76.679z"/>
	<path fill="#50AD4E" d="M142.241,74.643v7.041c0,0.799,0.186,1.422,0.557,1.867c0.37,0.449,0.931,0.672,1.686,0.672
		c0.551,0,1.068-0.129,1.551-0.389c0.482-0.258,0.931-0.617,1.345-1.07v-8.121h2.067v11.046h-1.24c-0.29,0-0.472-0.137-0.544-0.414
		l-0.164-1.143c-0.478,0.516-1.009,0.935-1.594,1.252c-0.585,0.32-1.26,0.48-2.03,0.48c-0.61,0-1.143-0.104-1.606-0.305
		c-0.46-0.205-0.845-0.49-1.152-0.855c-0.309-0.365-0.542-0.805-0.703-1.316c-0.16-0.512-0.24-1.08-0.24-1.705v-7.041H142.241z
		 M143.799,69.898c0.247,0,0.43,0.042,0.548,0.12c0.12,0.079,0.232,0.205,0.333,0.37l1.612,2.634h-1.176
		c-0.16,0-0.293-0.023-0.396-0.072c-0.106-0.045-0.209-0.126-0.311-0.242l-2.557-2.81H143.799z"/>
	<path fill="#50AD4E" d="M152.983,85.689V74.643h1.24c0.292,0,0.473,0.138,0.546,0.413l0.151,1.144
		c0.48-0.515,1.012-0.932,1.6-1.251c0.587-0.32,1.267-0.478,2.035-0.478c0.602,0,1.133,0.101,1.594,0.303
		c0.461,0.206,0.848,0.488,1.16,0.854c0.311,0.366,0.548,0.809,0.708,1.32c0.159,0.511,0.238,1.076,0.238,1.701v7.041h-2.067v-7.041
		c0-0.795-0.185-1.418-0.556-1.867c-0.37-0.445-0.932-0.668-1.686-0.668c-0.56,0-1.078,0.131-1.558,0.394
		c-0.479,0.258-0.924,0.62-1.338,1.074v8.108H152.983z"/>
	<path fill="#50AD4E" d="M169.569,74.46c0.48,0,0.924,0.052,1.334,0.157c0.409,0.102,0.79,0.254,1.138,0.451h3.046v0.762
		c0,0.261-0.158,0.426-0.478,0.489l-1.208,0.177c0.224,0.462,0.337,0.971,0.337,1.521c0,0.543-0.103,1.035-0.31,1.47
		c-0.207,0.434-0.495,0.809-0.865,1.119c-0.37,0.312-0.811,0.555-1.323,0.721c-0.51,0.164-1.068,0.248-1.67,0.248
		c-0.508,0-0.979-0.053-1.415-0.16c-0.457,0.273-0.685,0.576-0.685,0.91c0,0.254,0.107,0.445,0.321,0.574
		c0.214,0.125,0.496,0.217,0.844,0.277c0.348,0.057,0.744,0.094,1.187,0.107c0.442,0.016,0.896,0.037,1.36,0.072
		c0.464,0.031,0.918,0.088,1.36,0.168c0.442,0.078,0.836,0.211,1.185,0.395c0.349,0.188,0.63,0.436,0.846,0.76
		c0.213,0.316,0.319,0.736,0.319,1.25c0,0.48-0.117,0.943-0.352,1.387c-0.237,0.449-0.577,0.844-1.024,1.189
		c-0.447,0.342-0.992,0.619-1.638,0.83c-0.646,0.213-1.374,0.314-2.187,0.314c-0.814,0-1.523-0.078-2.128-0.24
		c-0.607-0.156-1.111-0.371-1.513-0.643c-0.403-0.266-0.704-0.576-0.902-0.928c-0.2-0.351-0.3-0.719-0.3-1.105
		c0-0.541,0.168-1.002,0.505-1.375c0.337-0.375,0.801-0.666,1.388-0.877c-0.326-0.146-0.583-0.344-0.772-0.594
		c-0.188-0.248-0.283-0.58-0.283-0.994c0-0.162,0.028-0.324,0.087-0.496c0.059-0.168,0.147-0.34,0.266-0.512
		c0.121-0.168,0.27-0.33,0.446-0.482c0.179-0.154,0.383-0.289,0.616-0.406c-0.544-0.301-0.972-0.707-1.284-1.213
		c-0.312-0.502-0.47-1.094-0.47-1.767c0-0.546,0.106-1.034,0.315-1.471c0.211-0.434,0.503-0.809,0.878-1.122
		c0.373-0.309,0.817-0.549,1.332-0.717C168.387,74.539,168.954,74.46,169.569,74.46z M172.987,86.267
		c0-0.264-0.074-0.471-0.222-0.631c-0.149-0.16-0.35-0.287-0.605-0.383c-0.254-0.092-0.548-0.158-0.882-0.195
		c-0.332-0.037-0.685-0.066-1.055-0.086c-0.371-0.021-0.749-0.043-1.138-0.064c-0.389-0.023-0.76-0.061-1.115-0.109
		c-0.391,0.186-0.711,0.42-0.958,0.693c-0.247,0.277-0.37,0.602-0.37,0.971c0,0.242,0.062,0.463,0.184,0.67
		c0.123,0.205,0.311,0.385,0.561,0.533c0.251,0.148,0.57,0.266,0.958,0.352c0.389,0.088,0.847,0.131,1.377,0.131
		c0.521,0,0.985-0.045,1.392-0.139c0.406-0.096,0.747-0.227,1.024-0.393c0.275-0.166,0.485-0.365,0.631-0.594
		C172.914,86.795,172.987,86.545,172.987,86.267z M169.569,80.217c0.386,0,0.722-0.055,1.012-0.156
		c0.291-0.105,0.534-0.256,0.729-0.443c0.197-0.189,0.343-0.414,0.441-0.674c0.099-0.264,0.147-0.551,0.147-0.871
		c0-0.654-0.197-1.174-0.594-1.562c-0.394-0.389-0.974-0.582-1.736-0.582c-0.761,0-1.339,0.193-1.736,0.582
		c-0.394,0.389-0.593,0.908-0.593,1.562c0,0.314,0.052,0.599,0.153,0.859c0.102,0.26,0.249,0.488,0.445,0.68
		c0.197,0.193,0.44,0.344,0.73,0.449C168.858,80.162,169.192,80.217,169.569,80.217z"/>
	<path fill="#50AD4E" d="M191.38,76.679c-0.058,0.082-0.118,0.139-0.18,0.185c-0.061,0.044-0.147,0.063-0.255,0.063
		c-0.117,0-0.24-0.042-0.37-0.134c-0.132-0.092-0.291-0.188-0.48-0.294c-0.189-0.107-0.421-0.203-0.696-0.294
		c-0.276-0.092-0.614-0.135-1.012-0.135c-0.53,0-0.997,0.092-1.404,0.282c-0.407,0.189-0.747,0.46-1.018,0.814
		c-0.271,0.356-0.477,0.784-0.615,1.284c-0.137,0.5-0.207,1.068-0.207,1.699c0,0.654,0.075,1.234,0.224,1.742
		c0.148,0.508,0.359,0.936,0.631,1.285c0.271,0.348,0.603,0.613,0.99,0.793c0.388,0.182,0.822,0.271,1.3,0.271
		c0.466,0,0.845-0.057,1.144-0.168c0.297-0.111,0.544-0.234,0.739-0.365c0.197-0.129,0.361-0.252,0.496-0.363
		c0.133-0.111,0.271-0.168,0.407-0.168c0.174,0,0.305,0.062,0.391,0.193l0.59,0.752c-0.254,0.305-0.538,0.568-0.85,0.785
		c-0.313,0.217-0.647,0.395-1.002,0.533c-0.354,0.137-0.726,0.24-1.109,0.303c-0.384,0.066-0.777,0.098-1.177,0.098
		c-0.688,0-1.33-0.127-1.925-0.379c-0.596-0.256-1.113-0.623-1.551-1.111c-0.44-0.486-0.784-1.082-1.035-1.791
		c-0.249-0.705-0.374-1.51-0.374-2.41c0-0.818,0.113-1.576,0.343-2.27c0.228-0.69,0.564-1.293,1.006-1.802
		c0.442-0.504,0.988-0.901,1.637-1.184c0.65-0.283,1.395-0.424,2.237-0.424c0.791,0,1.485,0.126,2.085,0.381
		c0.598,0.253,1.125,0.608,1.583,1.064L191.38,76.679z"/>
	<path fill="#50AD4E" d="M194.602,85.689V69.638h2.069v6.421c0.464-0.479,0.979-0.865,1.546-1.156
		c0.565-0.285,1.218-0.432,1.957-0.432c0.603,0,1.134,0.101,1.596,0.303c0.459,0.206,0.847,0.488,1.158,0.854
		c0.313,0.366,0.548,0.809,0.708,1.32c0.159,0.511,0.239,1.076,0.239,1.701v7.041h-2.068v-7.041c0-0.795-0.185-1.418-0.556-1.867
		c-0.37-0.445-0.933-0.668-1.686-0.668c-0.56,0-1.078,0.131-1.558,0.394c-0.478,0.258-0.924,0.62-1.337,1.074v8.108H194.602z"/>
	<path fill="#50AD4E" d="M209.273,74.643v7.041c0,0.799,0.184,1.422,0.555,1.867c0.37,0.449,0.932,0.672,1.686,0.672
		c0.551,0,1.069-0.129,1.551-0.389c0.481-0.258,0.93-0.617,1.344-1.07v-8.121h2.067v11.046h-1.239c-0.292,0-0.473-0.137-0.546-0.414
		l-0.163-1.143c-0.48,0.516-1.011,0.935-1.594,1.252c-0.585,0.32-1.261,0.48-2.03,0.48c-0.608,0-1.143-0.104-1.604-0.305
		c-0.462-0.205-0.845-0.49-1.154-0.855c-0.309-0.365-0.542-0.805-0.703-1.316c-0.16-0.512-0.238-1.08-0.238-1.705v-7.041H209.273z"
		/>
	<path fill="#50AD4E" d="M223.488,88.91c-0.067,0.16-0.15,0.283-0.251,0.367c-0.101,0.082-0.257,0.125-0.468,0.125h-1.535
		l2.024-4.387l-4.548-10.373h1.796c0.173,0,0.311,0.043,0.413,0.125c0.101,0.084,0.17,0.181,0.207,0.288l2.862,6.749
		c0.124,0.334,0.222,0.662,0.294,0.994c0.05-0.17,0.104-0.338,0.163-0.51c0.059-0.17,0.119-0.34,0.186-0.506l2.765-6.727
		c0.044-0.122,0.119-0.223,0.227-0.299c0.109-0.074,0.231-0.114,0.37-0.114h1.643L223.488,88.91z"/>
	<path fill="#50AD4E" d="M236.08,74.471c0.664,0,1.285,0.109,1.849,0.332c0.568,0.22,1.057,0.543,1.468,0.962
		c0.416,0.419,0.74,0.937,0.971,1.55c0.233,0.614,0.348,1.316,0.348,2.107c0,0.318-0.034,0.533-0.105,0.645
		c-0.067,0.107-0.197,0.162-0.384,0.162h-7.291c0.021,0.674,0.115,1.262,0.287,1.762c0.173,0.498,0.404,0.916,0.696,1.248
		c0.295,0.328,0.649,0.574,1.061,0.738c0.414,0.162,0.878,0.246,1.386,0.246c0.479,0,0.888-0.055,1.232-0.162
		c0.344-0.111,0.643-0.232,0.893-0.359c0.251-0.133,0.464-0.252,0.639-0.361c0.171-0.111,0.324-0.162,0.456-0.162
		c0.175,0,0.303,0.062,0.381,0.193l0.586,0.752c-0.254,0.305-0.545,0.564-0.882,0.779c-0.332,0.215-0.691,0.391-1.075,0.531
		c-0.385,0.143-0.785,0.248-1.192,0.311c-0.411,0.066-0.813,0.098-1.213,0.098c-0.762,0-1.469-0.129-2.119-0.385
		c-0.649-0.258-1.211-0.635-1.68-1.131c-0.471-0.498-0.841-1.115-1.106-1.852c-0.265-0.736-0.396-1.584-0.396-2.541
		c0-0.77,0.12-1.484,0.358-2.15c0.24-0.665,0.583-1.238,1.028-1.73c0.449-0.491,0.994-0.876,1.632-1.158
		C234.548,74.612,235.273,74.471,236.08,74.471z M239.528,72.97h-1.382c-0.087,0-0.173-0.018-0.254-0.046
		c-0.083-0.029-0.168-0.086-0.259-0.174l-1.292-1.383c-0.06-0.051-0.12-0.12-0.187-0.205l-0.183,0.205l-1.308,1.383
		c-0.16,0.145-0.329,0.22-0.511,0.22h-1.439l2.452-2.896h1.916L239.528,72.97z M236.113,75.982c-0.906,0-1.62,0.263-2.14,0.789
		c-0.52,0.527-0.844,1.253-0.976,2.18h5.869c0-0.432-0.064-0.83-0.187-1.193c-0.124-0.365-0.302-0.677-0.539-0.94
		c-0.235-0.259-0.522-0.465-0.866-0.612C236.935,76.059,236.547,75.982,236.113,75.982z"/>
	<path fill="#50AD4E" d="M243.577,85.689V74.643h1.241c0.291,0,0.474,0.138,0.545,0.413l0.152,1.144
		c0.479-0.515,1.012-0.932,1.6-1.251c0.585-0.32,1.266-0.478,2.035-0.478c0.601,0,1.131,0.101,1.595,0.303
		c0.46,0.206,0.848,0.488,1.158,0.854c0.314,0.366,0.55,0.809,0.71,1.32c0.158,0.511,0.24,1.076,0.24,1.701v7.041h-2.07v-7.041
		c0-0.795-0.183-1.418-0.557-1.867c-0.37-0.445-0.93-0.668-1.685-0.668c-0.56,0-1.079,0.131-1.558,0.394
		c-0.479,0.258-0.922,0.62-1.337,1.074v8.108H243.577z"/>
	<path fill="#50AD4E" d="M266.228,74.46c0.478,0,0.922,0.052,1.333,0.157c0.407,0.102,0.788,0.254,1.135,0.451h3.048v0.762
		c0,0.261-0.16,0.426-0.477,0.489l-1.21,0.177c0.224,0.462,0.34,0.971,0.34,1.521c0,0.543-0.104,1.035-0.31,1.47
		c-0.21,0.434-0.497,0.809-0.867,1.119c-0.37,0.312-0.81,0.555-1.322,0.721c-0.512,0.164-1.069,0.248-1.67,0.248
		c-0.508,0-0.982-0.053-1.416-0.16c-0.456,0.273-0.687,0.576-0.687,0.91c0,0.254,0.108,0.445,0.321,0.574
		c0.217,0.125,0.497,0.217,0.844,0.277c0.348,0.057,0.744,0.094,1.188,0.107c0.441,0.016,0.896,0.037,1.36,0.072
		c0.463,0.031,0.918,0.088,1.359,0.168c0.444,0.078,0.837,0.211,1.188,0.395c0.347,0.188,0.628,0.436,0.844,0.76
		c0.214,0.316,0.318,0.736,0.318,1.25c0,0.48-0.116,0.943-0.351,1.387c-0.236,0.449-0.58,0.844-1.023,1.189
		c-0.449,0.342-0.994,0.619-1.641,0.83c-0.646,0.213-1.375,0.314-2.184,0.314c-0.815,0-1.525-0.078-2.13-0.24
		c-0.605-0.156-1.109-0.371-1.512-0.643c-0.404-0.266-0.703-0.576-0.905-0.928c-0.197-0.351-0.298-0.719-0.298-1.105
		c0-0.541,0.169-1.002,0.508-1.375c0.336-0.375,0.799-0.666,1.386-0.877c-0.325-0.146-0.582-0.344-0.774-0.594
		c-0.187-0.248-0.28-0.58-0.28-0.994c0-0.162,0.026-0.324,0.086-0.496c0.056-0.168,0.145-0.34,0.265-0.512
		c0.121-0.168,0.269-0.33,0.448-0.482c0.176-0.154,0.382-0.289,0.613-0.406c-0.541-0.301-0.971-0.707-1.282-1.213
		c-0.313-0.502-0.47-1.094-0.47-1.767c0-0.546,0.104-1.034,0.317-1.471c0.21-0.434,0.501-0.809,0.874-1.122
		c0.374-0.309,0.818-0.549,1.333-0.717C265.044,74.539,265.611,74.46,266.228,74.46z M269.645,86.267
		c0-0.264-0.074-0.471-0.224-0.631c-0.15-0.16-0.351-0.287-0.605-0.383c-0.254-0.092-0.548-0.158-0.881-0.195
		c-0.333-0.037-0.684-0.066-1.054-0.086c-0.374-0.021-0.751-0.043-1.139-0.064c-0.388-0.023-0.758-0.061-1.117-0.109
		c-0.389,0.186-0.711,0.42-0.956,0.693c-0.247,0.277-0.37,0.602-0.37,0.971c0,0.242,0.059,0.463,0.182,0.67
		c0.123,0.205,0.314,0.385,0.564,0.533s0.568,0.266,0.957,0.352c0.388,0.088,0.848,0.131,1.377,0.131c0.52,0,0.986-0.045,1.39-0.139
		c0.407-0.096,0.747-0.227,1.022-0.393c0.277-0.166,0.487-0.365,0.632-0.594C269.571,86.795,269.645,86.545,269.645,86.267z
		 M266.228,80.217c0.384,0,0.721-0.055,1.012-0.156c0.288-0.105,0.531-0.256,0.728-0.443c0.194-0.189,0.344-0.414,0.442-0.674
		c0.097-0.264,0.145-0.551,0.145-0.871c0-0.654-0.199-1.174-0.594-1.562c-0.393-0.389-0.971-0.582-1.733-0.582
		c-0.762,0-1.34,0.193-1.737,0.582c-0.396,0.389-0.594,0.908-0.594,1.562c0,0.314,0.052,0.599,0.154,0.859
		c0.1,0.26,0.25,0.488,0.444,0.68c0.198,0.193,0.441,0.344,0.732,0.449C265.514,80.162,265.851,80.217,266.228,80.217z"/>
	<path fill="#50AD4E" d="M276.818,71.214c0,0.196-0.042,0.379-0.117,0.55c-0.074,0.172-0.183,0.323-0.317,0.454
		c-0.131,0.132-0.287,0.232-0.466,0.31c-0.176,0.073-0.363,0.113-0.56,0.113c-0.186,0-0.367-0.04-0.538-0.113
		c-0.173-0.077-0.321-0.178-0.453-0.31c-0.13-0.131-0.235-0.282-0.31-0.454c-0.074-0.171-0.116-0.354-0.116-0.55
		c0-0.195,0.042-0.383,0.116-0.561c0.074-0.177,0.18-0.331,0.31-0.459c0.131-0.132,0.28-0.237,0.453-0.312
		c0.171-0.077,0.352-0.114,0.538-0.114c0.197,0,0.384,0.037,0.56,0.114c0.18,0.074,0.335,0.18,0.466,0.312
		c0.134,0.128,0.243,0.282,0.317,0.459C276.776,70.831,276.818,71.019,276.818,71.214z M276.414,74.643v11.046h-2.07V74.643H276.414
		z"/>
	<path fill="#50AD4E" d="M287.122,85.689c-0.201,0-0.358-0.031-0.467-0.096c-0.111-0.066-0.197-0.195-0.261-0.383l-0.228-0.988
		c-0.283,0.26-0.564,0.494-0.839,0.699c-0.277,0.209-0.564,0.381-0.864,0.52c-0.303,0.137-0.624,0.244-0.964,0.314
		c-0.343,0.074-0.724,0.109-1.142,0.109c-0.436,0-0.845-0.061-1.222-0.18c-0.376-0.121-0.705-0.305-0.982-0.549
		c-0.28-0.248-0.5-0.555-0.665-0.92c-0.164-0.365-0.246-0.799-0.246-1.303c0-0.436,0.119-0.85,0.354-1.25
		c0.235-0.4,0.621-0.758,1.154-1.07c0.534-0.318,1.229-0.576,2.087-0.779c0.864-0.203,1.92-0.32,3.175-0.35V78.64
		c0-0.836-0.179-1.464-0.541-1.891c-0.358-0.425-0.885-0.636-1.581-0.636c-0.474,0-0.867,0.06-1.184,0.18
		c-0.314,0.119-0.586,0.252-0.815,0.391c-0.227,0.141-0.43,0.271-0.605,0.386c-0.171,0.117-0.347,0.177-0.522,0.177
		c-0.146,0-0.266-0.04-0.363-0.116c-0.097-0.074-0.183-0.166-0.257-0.267l-0.37-0.677c0.615-0.576,1.285-1.014,1.998-1.305
		c0.712-0.288,1.501-0.434,2.367-0.434c0.624,0,1.178,0.1,1.663,0.303c0.485,0.206,0.896,0.488,1.225,0.854
		c0.333,0.369,0.582,0.811,0.751,1.322c0.171,0.517,0.257,1.088,0.257,1.713v7.049H287.122z M282.977,84.416
		c0.325,0,0.628-0.031,0.908-0.096c0.28-0.066,0.541-0.16,0.783-0.283c0.243-0.123,0.476-0.273,0.691-0.451
		c0.217-0.178,0.434-0.381,0.654-0.605v-2.219c-0.87,0.027-1.613,0.098-2.223,0.207c-0.608,0.107-1.1,0.248-1.482,0.424
		c-0.381,0.174-0.661,0.381-0.833,0.625c-0.175,0.242-0.261,0.51-0.261,0.801c0,0.281,0.044,0.524,0.134,0.73
		c0.09,0.199,0.217,0.365,0.378,0.492c0.155,0.127,0.343,0.223,0.559,0.285C282.499,84.384,282.729,84.416,282.977,84.416z"/>
	<g>
		<path fill="#50AD4E" d="M15.033,14.006c0-0.866,0.678-1.601,1.627-1.601h1.966c0.881,0,1.628,0.734,1.628,1.601v18.878
			l21.154-19.812c0.271-0.333,0.881-0.667,1.287-0.667h3.323c1.221,0,1.9,1.335,0.815,2.335L25.406,34.417l22.442,22.615
			c0.474,0.467,0.339,2.067-1.152,2.067h-3.458c-0.475,0-1.085-0.267-1.221-0.467L20.253,36.287v21.212
			c0,0.866-0.746,1.601-1.628,1.601H16.66c-0.95,0-1.627-0.734-1.627-1.601V14.006z"/>
	</g>
	<g>
		<g>
			<path fill="#50AD4E" d="M71.982,36.637L55.897,14.346c-0.533-0.868,0-1.937,1.067-1.937h3.138c0.467,0,0.867,0.334,1.067,0.602
				L74.651,31.63l13.482-18.619c0.199-0.268,0.599-0.602,1.066-0.602h3.137c1.067,0,1.602,1.068,1.067,1.937L77.12,36.57v21.29
				c0,0.668-0.6,1.266-1.268,1.266h-2.603c-0.733,0-1.267-0.598-1.267-1.266V36.637z"/>
		</g>
	</g>
	<g>
		<g>
			<path fill="#50AD4E" d="M148.413,57.416l20.288-44.283c0.201-0.396,0.535-0.724,1.135-0.724h0.667
				c0.602,0,0.935,0.327,1.135,0.724l20.155,44.283c0.401,0.856-0.133,1.709-1.135,1.709h-2.669c-0.6,0-1.001-0.393-1.135-0.722
				l-4.939-10.858h-23.692l-4.872,10.858c-0.133,0.329-0.533,0.722-1.135,0.722h-2.669
				C148.546,59.125,148.013,58.273,148.413,57.416z M180.114,43.426c-3.269-7.19-6.474-14.447-9.744-21.639h-0.533l-9.745,21.639
				H180.114z"/>
		</g>
	</g>
	<g>
		<g>
			<path fill="#50AD4E" d="M101.943,14.14c0-0.667,0.286-1.699,1.317-1.701c0,0,1.031-0.029,1.484-0.029
				c0.703,0,1.254,0.777,1.254,0.777l28.962,36.028c0.067,0,0.067,0,0.135,0V13.706c0-0.669,0.533-1.267,1.267-1.267h2.336
				c0.668,0,1.268,0.598,1.268,1.267v44.326c0,0.664-0.618,1.062-1.286,1.062c0,0-0.173,0.04-1.438,0.031
				c-0.652-0.005-1.478-1.165-1.478-1.165l-28.902-36.396h-0.066v36.243c0,0.667-0.535,1.267-1.269,1.267h-2.336
				c-0.668,0-1.269-0.6-1.269-1.267L101.943,14.14z"/>
		</g>
	</g>
	<g>
		<path fill="#50AD4E" d="M198.237,14.156c-0.401-0.855,0.132-1.71,1.134-1.71h2.67c0.601,0,1.002,0.395,1.134,0.724l16.618,36.816
			h0.268l16.618-36.816c0.132-0.329,0.599-0.724,1.135-0.724h2.669c1.002,0,1.535,0.854,1.133,1.71l-20.287,44.247
			c-0.201,0.393-0.602,0.722-1.136,0.722h-0.667c-0.467,0-0.935-0.329-1.135-0.722L198.237,14.156z"/>
	</g>
	<circle fill="#50AD4E" cx="204.228" cy="55.135" r="3.989"/>
	<g>
		<g>
			<path fill="#50AD4E" d="M250.079,14.14c0-0.667,0.286-1.699,1.317-1.701c0,0,1.031-0.029,1.484-0.029
				c0.703,0,1.254,0.777,1.254,0.777l28.962,36.028c0.067,0,0.067,0,0.135,0V13.706c0-0.669,0.533-1.267,1.267-1.267h2.336
				c0.668,0,1.269,0.598,1.269,1.267v44.326c0,0.664-0.618,1.062-1.286,1.062c0,0-0.173,0.04-1.438,0.031
				c-0.652-0.005-1.478-1.165-1.478-1.165l-28.902-36.396h-0.066v36.243c0,0.667-0.535,1.267-1.268,1.267h-2.336
				c-0.668,0-1.269-0.6-1.269-1.267L250.079,14.14z"/>
		</g>
	</g>
</g>
</svg>
